<svg id="Layer_1" data-name="Layer 1" xmlns="http://www.w3.org/2000/svg" viewBox="0 0 477.56 132.31"><defs><style>.cls-1{fill:#fff;}</style></defs><path class="cls-1" d="M631.57,365.47a28,28,0,0,0,7.54-20.19h0c-.29-12.87-9.09-26.72-27.7-26.72H592.1v54.7h19.31C619.62,373.26,626.59,370.57,631.57,365.47Zm-30.74-38.4h10.58c12.85,0,18.79,9.2,19,18.32a19.51,19.51,0,0,1-5.23,14.05c-3.35,3.43-8.11,5.24-13.75,5.24H600.83Z" transform="translate(-445.4 -317.85)"/><rect class="cls-1" x="209.05" y="0.71" width="8.66" height="54.7"/><path class="cls-1" d="M726.73,364.43v-22.1H700.85v8.23h17.37V361a20,20,0,0,1-12.72,4.44C691.07,365.39,686,354.93,686,346a20,20,0,0,1,5.48-14.43c3.46-3.48,8.33-5.32,14.07-5.32a20.78,20.78,0,0,1,14.3,5.7l1.81,1.78,5.5-6L725.44,326a28.24,28.24,0,0,0-19.94-8.17c-8.1,0-15.35,2.79-20.4,7.87s-7.77,12.15-7.73,20.33c0,13.86,8.7,27.85,28.13,27.85A28.24,28.24,0,0,0,726,365.14Z" transform="translate(-445.4 -317.85)"/><rect class="cls-1" x="297.59" y="0.71" width="8.66" height="54.7"/><polygon class="cls-1" points="366.17 0.78 321.43 0.78 321.43 9.08 339.44 9.08 339.44 55.41 348.17 55.41 348.17 9.08 366.17 9.08 366.17 0.78"/><path class="cls-1" d="M850.07,318.56h-7.36l-24.53,54.7h9.48L833.07,361h26.58l5.48,12.24h9.48Zm-13.35,34,9.64-21.83L856,352.58Z" transform="translate(-445.4 -317.85)"/><polygon class="cls-1" points="449.52 46.9 449.52 0.71 440.79 0.71 440.79 55.41 477.56 55.41 477.56 46.9 449.52 46.9"/><path class="cls-1" d="M632.24,424a17.91,17.91,0,0,0,5-13c-.08-9.22-6.79-18.55-19.46-18.55H592.53v56.68h8.88V429.55H612l17.91,19.61h11.9l-18.75-20.34A17.86,17.86,0,0,0,632.24,424Zm-30.83-22.94h16.35a10.21,10.21,0,0,1,7.48,2.8A9.88,9.88,0,0,1,628,411c-.06,6.6-3.65,9.94-10.65,9.94H601.41Z" transform="translate(-445.4 -317.85)"/><path class="cls-1" d="M670.35,392.48l-25.42,56.68h9.65l5.62-12.73H688l5.7,12.73h9.65l-25.43-56.68Zm-6.44,35.37,10.17-23,10.17,23Z" transform="translate(-445.4 -317.85)"/><path class="cls-1" d="M736,392.48H716v56.68h20c8.51,0,15.74-2.79,20.9-8.07a29,29,0,0,0,7.81-20.92h0C764.42,406.83,755.31,392.48,736,392.48Zm0,47.95h-11.1v-39.3H736c13.43,0,19.64,9.62,19.84,19.14A20.4,20.4,0,0,1,750.39,435C746.89,438.54,741.92,440.43,736,440.43Z" transform="translate(-445.4 -317.85)"/><rect class="cls-1" x="335.47" y="74.63" width="8.8" height="56.68"/><path class="cls-1" d="M843,427.11c0,9.78-7,14.23-13.49,14.23a13.44,13.44,0,0,1-9.26-3.51c-2.74-2.55-4.19-6.26-4.19-10.72V392.48h-8.8v34.63c0,7,2.41,12.89,7,17.06a22.5,22.5,0,0,0,15.27,5.72c11.08,0,22.29-7.83,22.29-22.78V392.48H843Z" transform="translate(-445.4 -317.85)"/><polygon class="cls-1" points="450.61 102.8 432.11 74.63 423.61 74.63 423.61 131.31 432.49 131.31 432.49 90.99 448.72 115.63 452.69 115.63 468.75 91.04 468.75 131.31 477.56 131.31 477.56 74.63 468.91 74.63 450.61 102.8"/><path class="cls-1" d="M509.35,429.5a41.53,41.53,0,0,0,24-7.91c13.48-9.51,20.11-21.13,20.26-35.51.08-7.79,0-15.71,0-23.37,0-6.18-.06-12.58,0-18.87a3.88,3.88,0,0,0-4.5-4.48q-6.87,0-13.73,0H530l-2.48,0c-5.23,0-10.63.09-15.94.4A50,50,0,0,0,491.31,345c-21.82,11.13-31.21,32.59-23.39,53.39,5.46,14.53,16.24,25.21,29.56,29.31A40.25,40.25,0,0,0,509.35,429.5Zm36.71-67c0,1.56,0,3.12,0,4.65l-.17.26.16.29c-.16,3.25-.2,6.54-.24,9.73-.05,3.52-.09,7.15-.29,10.71-.62,10.92-6.22,19.81-17.11,27.15-8.53,5.76-18.36,7.52-27.68,5-10.15-2.79-18.87-10.54-23.92-21.27-8.71-18.47-.81-38,19.21-47.48,7.05-3.34,14.7-3.72,22.1-4.09,1.23-.06,2.45-.12,3.67-.2,2.31-.14,4.65-.18,7-.18,1.52,0,3,0,4.52,0,3,0,6.16.06,9.25,0a3.79,3.79,0,0,1,2.79.68,3.86,3.86,0,0,1,.75,2.88C546,354.58,546.05,358.62,546.06,362.52Z" transform="translate(-445.4 -317.85)"/><path class="cls-1" d="M573.54,345.89c-.11-7.25-.23-14.75-.31-22.12,0-1.72-.36-2.82-1.12-3.55a4.35,4.35,0,0,0-3.28-1c-6.13.08-12.37.07-18.41.05h-5.71v0h-1a1,1,0,0,0-.45-.07,1,1,0,0,0-.22.07l-30.36.27c-.56,0-14-.21-25.2,5.77l-.1.05a78.76,78.76,0,0,0-22.57,15c-14.33,13.34-20.78,29.88-19.18,49.16,1.24,14.9,7.84,28.69,19.6,41,12.41,13,27.62,19.69,43.33,19.69a59,59,0,0,0,25-5.71C560,432.14,574,410.72,574,382.51,573.93,370.3,573.74,357.89,573.54,345.89ZM470.6,424.45c-11.09-12.05-16.72-24.31-17.23-37.46-.79-20.34,8.05-36.33,27-48.9,10-6.63,21.36-10.06,34.69-10.49l6.87-.24c7.26-.26,14.76-.52,22.15-.53l.33.19.32-.19h4.9c4.2,0,8.53,0,12.8,0,2.36,0,3.14.78,3.25,3.21l0,1.17c.91,20.76,1.84,42.22-.82,63.22-1.54,12.2-8,22.9-20.16,33.67-13.39,11.8-29.5,16-47.89,12.35C487.5,438.57,478.65,433.2,470.6,424.45Z" transform="translate(-445.4 -317.85)"/></svg>